# File created by Blade
# Date/Time:  Thu Jan 22 16:31:11 2015
# Frame Rate: 120.000 fps
#------------------------------------------------------
:FULLY-SPECIFIED
:DEGREES
1037
root 4.018614 37.613063 0.909016 -8.305448 1.020425 7.985758
RightUpLeg 5.496263 -0.071332 -16.079386
RightLeg 7.611310 -0.000000 -0.000000
RightFoot -20.409215 -20.092236 26.731361
RightToeBase 6.799273 -0.000000 -0.000000
LeftUpLeg -1.346396 -5.084641 -10.088215
LeftLeg 28.445817 -0.000000 -0.000000
LeftFoot -19.870781 8.704438 -22.440764
LeftToeBase -7.694433 -0.000000 0.000000
Spine 23.768609 -5.121599 2.356236
RightShoulder 0.353691 -14.656582 -27.071351
RightArm 20.523592 12.758955 41.815731
RightForeArm 17.408798 -0.000000 32.232285
RightHand 5.577954 0.000000 -20.713873
RightHandThumb1 -24.326973 -0.000000 -32.862282
LeftShoulder -26.716881 31.010906 3.530306
LeftArm 39.550936 -22.452140 -63.309968
LeftForeArm 34.481616 -0.000000 42.150177
LeftHand -21.175209 -0.000000 -2.184492
LeftHandThumb1 -26.253704 0.000000 33.147579
Head -22.075654 9.225633 -9.136146
1038
root 3.959632 37.596753 0.943191 -8.284757 0.863327 7.475025
RightUpLeg 5.758833 0.115385 -15.433973
RightLeg 7.080776 -0.000000 -0.000000
RightFoot -20.325393 -20.274751 26.723239
RightToeBase 6.749518 -0.000000 -0.000000
LeftUpLeg -0.593859 -5.793013 -9.732884
LeftLeg 26.638957 -0.000000 -0.000000
LeftFoot -19.777365 9.787541 -22.083564
LeftToeBase -7.759787 -0.000000 0.000000
Spine 23.488749 -5.194285 2.665576
RightShoulder 0.218478 -14.685016 -27.199379
RightArm 20.370093 13.391260 41.208527
RightForeArm 17.359767 0.000000 32.201524
RightHand 5.461475 -0.000000 -20.684657
RightHandThumb1 -24.326973 -0.000000 -32.862282
LeftShoulder -26.740778 31.106124 3.751945
LeftArm 39.632559 -23.340521 -62.922291
LeftForeArm 34.004333 -0.000000 41.841741
LeftHand -21.139445 -0.000000 -2.217077
LeftHandThumb1 -26.253704 0.000000 33.147579
Head -21.960382 9.361372 -8.966029
1039
root 3.899256 37.577095 0.979402 -8.267811 0.716681 6.957070
RightUpLeg 6.025119 0.335038 -14.777214
RightLeg 6.568211 -0.000000 -0.000000
RightFoot -20.262222 -20.481268 26.782111
RightToeBase 6.809474 -0.000000 -0.000000
LeftUpLeg 0.168050 -6.534681 -9.351098
LeftLeg 24.830707 -0.000000 -0.000000
LeftFoot -19.588415 10.841883 -21.823481
LeftToeBase -7.450959 -0.000000 0.000000
Spine 23.208356 -5.248982 2.951142
RightShoulder 0.061548 -14.748411 -27.270951
RightArm 20.238369 14.005135 40.589627
RightForeArm 17.486254 -0.000000 32.131891
RightHand 5.369269 -0.000000 -20.654666
RightHandThumb1 -24.326973 -0.000000 -32.862282
LeftShoulder -26.707533 31.169951 4.048369
LeftArm 39.653942 -24.214053 -62.544541
LeftForeArm 33.559268 -0.000000 41.537527
LeftHand -21.013819 -0.000000 -2.182033
LeftHandThumb1 -26.253704 0.000000 33.147579
Head -21.842816 9.483665 -8.693969
1040
root 3.843474 37.555659 1.014341 -8.273740 0.583259 6.460816
RightUpLeg 6.286258 0.477390 -14.164832
RightLeg 6.108166 -0.000000 -0.000000
RightFoot -20.129413 -20.671999 26.794594
RightToeBase 6.779784 -0.000000 -0.000000
LeftUpLeg 0.966023 -7.281603 -8.987966
LeftLeg 22.966734 -0.000000 -0.000000
LeftFoot -19.243835 11.928109 -21.360240
LeftToeBase -7.890939 -0.000000 0.000000
Spine 22.983776 -5.294635 3.205134
RightShoulder -0.114783 -14.762656 -27.362207
RightArm 20.099653 14.686354 40.087532
RightForeArm 17.350586 -0.000000 32.000517
RightHand 5.258496 -0.000000 -20.466118
RightHandThumb1 -24.326973 -0.000000 -32.862282
LeftShoulder -26.677239 31.211634 4.338316
LeftArm 39.724269 -25.071582 -62.189376
LeftForeArm 33.253628 -0.000000 41.229113
LeftHand -20.991515 0.000000 -2.268601
LeftHandThumb1 -26.253704 0.000000 33.147579
Head -21.725748 9.607732 -8.414056
1041
root 3.791348 37.533112 1.048834 -8.285631 0.448469 5.992561
RightUpLeg 6.501306 0.516901 -13.607239
RightLeg 5.743276 -0.000000 -0.000000
RightFoot -19.947760 -20.777107 26.794680
RightToeBase 6.690674 -0.000000 -0.000000
LeftUpLeg 1.754202 -8.031943 -8.636164
LeftLeg 21.139802 -0.000000 -0.000000
LeftFoot -18.793711 12.834967 -21.205635
LeftToeBase -7.846442 -0.000000 0.000000
Spine 22.776519 -5.344274 3.394885
RightShoulder -0.228652 -14.664593 -27.436894
RightArm 19.819980 15.272650 39.550864
RightForeArm 17.250483 -0.000000 31.860123
RightHand 5.256976 -0.000000 -20.220573
RightHandThumb1 -24.326973 -0.000000 -32.862282
LeftShoulder -26.647966 31.209507 4.663468
LeftArm 39.799413 -25.956571 -61.894744
LeftForeArm 33.086417 -0.000000 40.859056
LeftHand -20.751081 -0.000000 -2.232571
LeftHandThumb1 -26.253704 0.000000 33.147579
Head -21.625272 9.753218 -8.102147
1042
root 3.740680 37.508037 1.085694 -8.313547 0.297886 5.517803
RightUpLeg 6.715696 0.577551 -13.046910
RightLeg 5.403395 -0.000000 -0.000000
RightFoot -19.848110 -20.859716 26.890703
RightToeBase 6.704449 -0.000000 -0.000000
LeftUpLeg 2.547722 -8.719088 -8.280950
LeftLeg 19.358415 -0.000000 -0.000000
LeftFoot -18.321136 13.711677 -21.151647
LeftToeBase -7.114135 -0.000000 0.000000
Spine 22.577140 -5.375974 3.581166
RightShoulder -0.323345 -14.633820 -27.511824
RightArm 19.563168 15.765663 38.963915
RightForeArm 17.234244 -0.000000 31.657244
RightHand 5.291751 -0.000000 -20.140227
RightHandThumb1 -24.326973 -0.000000 -32.862282
LeftShoulder -26.599307 31.240787 4.978161
LeftArm 39.898698 -26.862551 -61.600476
LeftForeArm 32.902223 0.000000 40.505701
LeftHand -20.657017 -0.000000 -2.396707
LeftHandThumb1 -26.253704 0.000000 33.147579
Head -21.428288 9.857732 -7.782073
1043
root 3.692960 37.480936 1.120166 -8.318920 0.167048 5.048382
RightUpLeg 6.888231 0.541517 -12.515953
RightLeg 5.117686 -0.000000 -0.000000
RightFoot -19.740984 -20.862079 26.926530
RightToeBase 6.844826 -0.000000 -0.000000
LeftUpLeg 3.276764 -9.301911 -7.897879
LeftLeg 17.627770 -0.000000 -0.000000
LeftFoot -17.237544 14.707328 -20.324293
LeftToeBase -8.041960 -0.000000 0.000000
Spine 22.368215 -5.382761 3.753985
RightShoulder -0.440751 -14.541850 -27.574035
RightArm 19.232994 16.236562 38.441378
RightForeArm 17.225007 -0.000000 31.484510
RightHand 5.209874 -0.000000 -20.071255
RightHandThumb1 -24.326973 -0.000000 -32.862282
LeftShoulder -26.444656 31.158901 5.422036
LeftArm 39.798979 -27.660076 -61.226334
LeftForeArm 32.727585 -0.000000 40.226498
LeftHand -20.568181 0.000000 -2.347300
LeftHandThumb1 -26.253704 0.000000 33.147579
Head -21.288541 10.006981 -7.402066
1044
root 3.653924 37.457066 1.162587 -8.412399 0.054316 4.665882
RightUpLeg 7.137162 0.448103 -12.102473
RightLeg 4.894248 -0.000000 -0.000000
RightFoot -19.660940 -20.792259 26.975023
RightToeBase 6.926872 -0.000000 -0.000000
LeftUpLeg 4.063021 -9.652429 -7.589279
LeftLeg 15.973727 -0.000000 -0.000000
LeftFoot -15.809146 15.758986 -18.996374
LeftToeBase -8.248061 -0.000000 0.000000
Spine 22.271254 -5.387502 3.790438
RightShoulder -0.548662 -14.502050 -27.585065
RightArm 18.914114 16.784438 37.957520
RightForeArm 17.314078 -0.000000 31.368611
RightHand 5.011243 0.000000 -20.028852
RightHandThumb1 -24.326973 -0.000000 -32.862282
LeftShoulder -26.337334 31.102438 5.826920
LeftArm 39.831240 -28.493101 -60.924074
LeftForeArm 32.588112 -0.000000 39.932425
LeftHand -20.730036 0.000000 -2.268378
LeftHandThumb1 -26.253704 0.000000 33.147579
Head -21.159074 10.053929 -6.951073
1045
root 3.615589 37.432624 1.201913 -8.510934 -0.026144 4.308680
RightUpLeg 7.375653 0.283626 -11.729987
RightLeg 4.706758 -0.000000 -0.000000
RightFoot -19.564521 -20.618967 26.980527
RightToeBase 6.945501 -0.000000 -0.000000
LeftUpLeg 4.792333 -9.889098 -7.298925
LeftLeg 14.496190 -0.000000 -0.000000
LeftFoot -14.637443 16.888447 -17.042135
LeftToeBase -4.552177 -0.000000 0.000000
Spine 22.187039 -5.398272 3.764008
RightShoulder -0.699916 -14.613056 -27.559088
RightArm 18.752317 17.362677 37.515479
RightForeArm 17.493597 -0.000000 31.161234
RightHand 4.919990 -0.000000 -20.019200
RightHandThumb1 -24.326973 -0.000000 -32.862282
LeftShoulder -26.196297 31.039935 6.255812
LeftArm 39.906394 -29.384919 -60.650890
LeftForeArm 32.528269 -0.000000 39.583662
LeftHand -20.789552 -0.000000 -2.381010
LeftHandThumb1 -26.253704 0.000000 33.147579
Head -20.998513 10.246712 -6.443560
1046
root 3.587624 37.411242 1.235987 -8.611858 -0.110239 3.980776
RightUpLeg 7.589890 0.127867 -11.399985
RightLeg 4.550697 -0.000000 -0.000000
RightFoot -19.419616 -20.471821 26.913485
RightToeBase 6.859316 -0.000000 -0.000000
LeftUpLeg 5.412598 -9.988515 -7.018993
LeftLeg 13.336941 -0.000000 -0.000000
LeftFoot -14.399448 17.493093 -16.530557
LeftToeBase 0.819455 -0.000000 -0.000000
Spine 22.147260 -5.435182 3.700705
RightShoulder -0.840877 -14.617559 -27.537088
RightArm 18.550485 17.974445 37.138978
RightForeArm 17.496753 -0.000000 30.970294
RightHand 4.955003 0.000000 -19.865813
RightHandThumb1 -24.326973 -0.000000 -32.862282
LeftShoulder -26.102138 30.980710 6.654526
LeftArm 39.974270 -30.198148 -60.350688
LeftForeArm 32.498350 -0.000000 39.252481
LeftHand -20.926543 -0.000000 -2.288425
LeftHandThumb1 -26.253704 0.000000 33.147579
Head -20.880577 10.330795 -5.959180
1047
root 3.567204 37.391350 1.273588 -8.701492 -0.119557 3.708519
RightUpLeg 7.818497 -0.126837 -11.150587
RightLeg 4.395030 -0.000000 -0.000000
RightFoot -19.320269 -20.197808 26.819755
RightToeBase 6.726568 -0.000000 -0.000000
LeftUpLeg 5.944746 -10.067011 -6.826135
LeftLeg 12.575293 -0.000000 -0.000000
LeftFoot -14.533341 18.146134 -16.469533
LeftToeBase 3.430641 -0.000000 -0.000000
Spine 22.078983 -5.537918 3.537953
RightShoulder -0.960104 -14.667555 -27.492152
RightArm 18.362421 18.600111 36.831268
RightForeArm 17.443398 -0.000000 30.774238
RightHand 4.988274 0.000000 -19.848520
RightHandThumb1 -24.326973 -0.000000 -32.862282
LeftShoulder -26.007726 30.905302 7.058451
LeftArm 39.987197 -31.007968 -60.025624
LeftForeArm 32.593152 -0.000000 38.949081
LeftHand -20.797602 -0.000000 -2.202212
LeftHandThumb1 -26.253704 0.000000 33.147579
Head -20.752434 10.559597 -5.415956
1048
root 3.553672 37.374517 1.309172 -8.786030 -0.096638 3.453455
RightUpLeg 8.050752 -0.336037 -10.919394
RightLeg 4.247869 -0.000000 -0.000000
RightFoot -19.301090 -19.946140 26.796756
RightToeBase 6.857122 -0.000000 -0.000000
LeftUpLeg 6.343933 -10.102418 -6.641704
LeftLeg 12.296179 -0.000000 -0.000000
LeftFoot -14.853369 18.414288 -16.392744
LeftToeBase 4.604616 -0.000000 -0.000000
Spine 22.031731 -5.616160 3.378691
RightShoulder -1.190492 -14.720941 -27.429998
RightArm 18.219578 19.239818 36.607768
RightForeArm 17.349553 -0.000000 30.608096
RightHand 4.873714 -0.000000 -19.847817
RightHandThumb1 -24.326973 -0.000000 -32.862282
LeftShoulder -25.919821 30.888631 7.438367
LeftArm 40.144807 -31.737664 -59.714757
LeftForeArm 32.407958 -0.000000 38.504764
LeftHand -20.671694 -0.000000 -1.699687
LeftHandThumb1 -26.253704 0.000000 33.147579
Head -20.638159 10.588797 -4.833864
